<?xml version="1.0" encoding="UTF-8" standalone="no"?>
<!DOCTYPE svg PUBLIC "-//W3C//DTD SVG 1.1//EN" "http://www.w3.org/Graphics/SVG/1.1/DTD/svg11.dtd">
<svg width="100%" height="100%" viewBox="0 0 250 250" version="1.1" xmlns="http://www.w3.org/2000/svg" xmlns:xlink="http://www.w3.org/1999/xlink" xml:space="preserve" xmlns:serif="http://www.serif.com/" style="fill-rule:evenodd;clip-rule:evenodd;stroke-linejoin:round;stroke-miterlimit:2;">
    <g transform="matrix(1,0,0,1,-268,-110)">
        <g transform="matrix(144,0,0,144,292.773,277.734)">
            <path d="M0.244,-0.188C0.235,-0.172 0.226,-0.155 0.215,-0.137C0.204,-0.118 0.194,-0.105 0.184,-0.097C0.174,-0.089 0.167,-0.086 0.163,-0.089C0.159,-0.092 0.154,-0.098 0.149,-0.107C0.144,-0.115 0.141,-0.119 0.141,-0.119C0.139,-0.118 0.138,-0.116 0.138,-0.112C0.138,-0.108 0.139,-0.104 0.14,-0.101C0.144,-0.088 0.149,-0.079 0.155,-0.074C0.16,-0.069 0.168,-0.068 0.179,-0.071C0.191,-0.074 0.203,-0.082 0.215,-0.093C0.226,-0.104 0.236,-0.116 0.245,-0.127C0.265,-0.154 0.281,-0.183 0.293,-0.214C0.304,-0.245 0.311,-0.276 0.312,-0.308C0.313,-0.337 0.31,-0.356 0.301,-0.365C0.292,-0.374 0.281,-0.377 0.269,-0.374C0.256,-0.371 0.242,-0.364 0.227,-0.353C0.212,-0.342 0.198,-0.331 0.186,-0.321C0.19,-0.331 0.196,-0.341 0.203,-0.35C0.21,-0.359 0.218,-0.368 0.227,-0.375C0.235,-0.382 0.246,-0.387 0.257,-0.391C0.268,-0.394 0.279,-0.395 0.29,-0.394C0.297,-0.393 0.303,-0.39 0.308,-0.384C0.313,-0.378 0.318,-0.371 0.321,-0.362C0.324,-0.353 0.327,-0.342 0.328,-0.33C0.329,-0.318 0.328,-0.306 0.327,-0.293C0.324,-0.268 0.319,-0.242 0.313,-0.217C0.306,-0.192 0.298,-0.168 0.288,-0.147C0.287,-0.144 0.284,-0.139 0.281,-0.133C0.279,-0.127 0.278,-0.123 0.279,-0.122C0.28,-0.121 0.283,-0.123 0.289,-0.129C0.294,-0.134 0.297,-0.138 0.3,-0.141C0.312,-0.157 0.323,-0.175 0.332,-0.196C0.341,-0.216 0.348,-0.237 0.354,-0.258C0.359,-0.279 0.361,-0.301 0.362,-0.323C0.363,-0.344 0.361,-0.365 0.356,-0.384C0.352,-0.401 0.344,-0.412 0.332,-0.418C0.319,-0.424 0.306,-0.426 0.291,-0.424C0.276,-0.422 0.262,-0.417 0.247,-0.41C0.232,-0.403 0.22,-0.395 0.211,-0.386C0.215,-0.396 0.221,-0.405 0.228,-0.412C0.234,-0.42 0.243,-0.427 0.252,-0.433C0.261,-0.438 0.27,-0.442 0.281,-0.445C0.291,-0.447 0.301,-0.447 0.312,-0.446C0.331,-0.444 0.345,-0.437 0.355,-0.424C0.364,-0.411 0.371,-0.397 0.375,-0.381C0.378,-0.364 0.38,-0.347 0.38,-0.33C0.379,-0.312 0.378,-0.297 0.377,-0.285C0.374,-0.257 0.367,-0.229 0.358,-0.202C0.349,-0.175 0.337,-0.149 0.323,-0.126C0.312,-0.107 0.297,-0.089 0.279,-0.071C0.26,-0.053 0.24,-0.039 0.219,-0.028C0.198,-0.017 0.176,-0.012 0.153,-0.012C0.13,-0.011 0.109,-0.019 0.089,-0.036C0.076,-0.047 0.066,-0.063 0.061,-0.082C0.055,-0.101 0.051,-0.119 0.049,-0.136C0.046,-0.166 0.046,-0.196 0.051,-0.227C0.055,-0.257 0.061,-0.285 0.07,-0.311C0.083,-0.352 0.099,-0.393 0.116,-0.434C0.133,-0.475 0.147,-0.516 0.16,-0.556C0.172,-0.596 0.18,-0.635 0.183,-0.672C0.186,-0.709 0.181,-0.745 0.167,-0.778C0.166,-0.779 0.166,-0.781 0.166,-0.782C0.165,-0.783 0.165,-0.784 0.164,-0.784C0.162,-0.783 0.161,-0.783 0.162,-0.782C0.162,-0.781 0.162,-0.781 0.162,-0.78C0.166,-0.748 0.165,-0.715 0.158,-0.68C0.151,-0.645 0.142,-0.609 0.13,-0.572C0.117,-0.535 0.103,-0.496 0.088,-0.457C0.073,-0.417 0.058,-0.376 0.044,-0.334C0.035,-0.304 0.027,-0.272 0.021,-0.238C0.016,-0.204 0.016,-0.169 0.021,-0.134C0.028,-0.086 0.048,-0.05 0.08,-0.027C0.112,-0.004 0.152,0.005 0.2,-0C0.235,-0.004 0.265,-0.018 0.292,-0.042C0.319,-0.066 0.341,-0.095 0.359,-0.129C0.372,-0.155 0.384,-0.183 0.394,-0.212C0.403,-0.241 0.409,-0.27 0.411,-0.3C0.412,-0.319 0.412,-0.338 0.41,-0.358C0.409,-0.378 0.405,-0.397 0.398,-0.413C0.391,-0.431 0.38,-0.445 0.367,-0.456C0.353,-0.467 0.335,-0.473 0.312,-0.474C0.299,-0.475 0.284,-0.471 0.268,-0.464C0.251,-0.457 0.238,-0.448 0.229,-0.438C0.235,-0.458 0.241,-0.478 0.246,-0.5C0.251,-0.521 0.254,-0.541 0.257,-0.56C0.26,-0.579 0.261,-0.598 0.261,-0.615C0.26,-0.631 0.258,-0.646 0.253,-0.658C0.252,-0.663 0.25,-0.666 0.249,-0.666C0.248,-0.666 0.248,-0.663 0.248,-0.658C0.247,-0.615 0.24,-0.575 0.227,-0.537C0.214,-0.498 0.202,-0.462 0.189,-0.427C0.179,-0.399 0.169,-0.371 0.158,-0.344C0.147,-0.316 0.137,-0.288 0.13,-0.261C0.122,-0.234 0.116,-0.207 0.113,-0.181C0.11,-0.154 0.11,-0.129 0.115,-0.104C0.116,-0.101 0.117,-0.098 0.118,-0.095C0.12,-0.091 0.122,-0.089 0.123,-0.089C0.124,-0.089 0.125,-0.091 0.125,-0.094C0.124,-0.097 0.124,-0.101 0.125,-0.104C0.128,-0.127 0.135,-0.156 0.144,-0.189C0.153,-0.222 0.164,-0.255 0.177,-0.288C0.184,-0.295 0.193,-0.303 0.203,-0.312C0.214,-0.321 0.224,-0.329 0.234,-0.336C0.245,-0.343 0.254,-0.349 0.263,-0.353C0.272,-0.356 0.278,-0.356 0.282,-0.353C0.287,-0.348 0.289,-0.338 0.288,-0.324C0.287,-0.309 0.283,-0.293 0.279,-0.276C0.274,-0.259 0.268,-0.242 0.261,-0.226C0.254,-0.209 0.249,-0.197 0.244,-0.188ZM0.215,-0.547C0.219,-0.561 0.222,-0.578 0.225,-0.598C0.227,-0.617 0.228,-0.637 0.227,-0.657C0.226,-0.676 0.224,-0.695 0.22,-0.713C0.215,-0.73 0.209,-0.744 0.2,-0.755C0.199,-0.756 0.197,-0.758 0.196,-0.759C0.195,-0.761 0.193,-0.762 0.192,-0.762C0.19,-0.762 0.19,-0.759 0.193,-0.752C0.199,-0.739 0.201,-0.719 0.199,-0.693C0.197,-0.666 0.193,-0.638 0.187,-0.608C0.181,-0.578 0.174,-0.549 0.166,-0.52C0.158,-0.491 0.151,-0.469 0.144,-0.452C0.14,-0.443 0.136,-0.431 0.132,-0.418C0.127,-0.405 0.123,-0.391 0.119,-0.378C0.115,-0.364 0.111,-0.35 0.108,-0.338C0.104,-0.325 0.101,-0.313 0.099,-0.304C0.099,-0.301 0.099,-0.296 0.098,-0.29C0.097,-0.284 0.096,-0.281 0.097,-0.281C0.1,-0.28 0.103,-0.282 0.106,-0.288C0.108,-0.294 0.11,-0.298 0.112,-0.299C0.131,-0.337 0.149,-0.377 0.168,-0.42C0.186,-0.462 0.202,-0.504 0.215,-0.547ZM0.108,-0.071C0.114,-0.061 0.122,-0.053 0.131,-0.047C0.14,-0.04 0.15,-0.036 0.159,-0.034C0.162,-0.033 0.166,-0.033 0.17,-0.032C0.174,-0.031 0.176,-0.029 0.176,-0.026C0.175,-0.024 0.172,-0.022 0.167,-0.021C0.164,-0.02 0.161,-0.02 0.158,-0.02C0.147,-0.021 0.136,-0.023 0.125,-0.026C0.114,-0.029 0.102,-0.039 0.09,-0.055C0.082,-0.066 0.076,-0.078 0.073,-0.091C0.069,-0.104 0.067,-0.117 0.066,-0.129C0.065,-0.141 0.066,-0.151 0.068,-0.159C0.069,-0.167 0.072,-0.171 0.075,-0.17C0.076,-0.17 0.077,-0.168 0.078,-0.165C0.079,-0.161 0.081,-0.157 0.082,-0.152C0.083,-0.147 0.084,-0.142 0.085,-0.138C0.086,-0.133 0.086,-0.13 0.087,-0.128C0.09,-0.117 0.092,-0.107 0.094,-0.1C0.096,-0.093 0.101,-0.083 0.108,-0.071Z" style="fill:rgb(233,247,255);fill-rule:nonzero;"/>
        </g>
        <g transform="matrix(144,0,0,144,352.533,277.734)">
            <path d="M0.306,-0.408C0.311,-0.401 0.316,-0.393 0.319,-0.383C0.322,-0.373 0.323,-0.362 0.322,-0.35C0.321,-0.339 0.319,-0.327 0.314,-0.314C0.309,-0.301 0.302,-0.289 0.292,-0.277C0.273,-0.254 0.252,-0.237 0.229,-0.225C0.205,-0.212 0.185,-0.206 0.166,-0.206C0.155,-0.206 0.155,-0.208 0.166,-0.212C0.172,-0.214 0.179,-0.217 0.188,-0.222C0.196,-0.226 0.205,-0.231 0.214,-0.237C0.223,-0.244 0.233,-0.251 0.243,-0.26C0.252,-0.269 0.261,-0.279 0.269,-0.29C0.282,-0.309 0.29,-0.327 0.293,-0.344C0.295,-0.362 0.291,-0.376 0.282,-0.385C0.274,-0.393 0.265,-0.398 0.254,-0.399C0.243,-0.4 0.227,-0.394 0.206,-0.381C0.187,-0.37 0.169,-0.356 0.154,-0.339C0.139,-0.322 0.124,-0.305 0.111,-0.286C0.104,-0.277 0.099,-0.272 0.097,-0.272C0.094,-0.272 0.095,-0.278 0.099,-0.29C0.107,-0.313 0.118,-0.335 0.133,-0.355C0.147,-0.375 0.164,-0.392 0.184,-0.406C0.199,-0.416 0.212,-0.423 0.225,-0.427C0.237,-0.431 0.248,-0.433 0.259,-0.432C0.269,-0.431 0.278,-0.429 0.286,-0.425C0.294,-0.42 0.301,-0.415 0.306,-0.408ZM0.36,-0.338C0.357,-0.322 0.353,-0.309 0.347,-0.298C0.342,-0.286 0.336,-0.277 0.329,-0.27C0.322,-0.262 0.315,-0.256 0.308,-0.251C0.301,-0.246 0.294,-0.242 0.289,-0.238C0.286,-0.236 0.284,-0.236 0.283,-0.237C0.282,-0.238 0.283,-0.241 0.286,-0.244C0.298,-0.254 0.31,-0.268 0.323,-0.284C0.335,-0.302 0.341,-0.32 0.342,-0.341C0.342,-0.376 0.333,-0.403 0.316,-0.422C0.299,-0.441 0.277,-0.449 0.251,-0.447C0.225,-0.444 0.198,-0.434 0.17,-0.416C0.152,-0.405 0.136,-0.392 0.123,-0.377C0.109,-0.362 0.097,-0.345 0.087,-0.329C0.077,-0.312 0.069,-0.294 0.063,-0.276C0.056,-0.258 0.052,-0.24 0.049,-0.222C0.046,-0.205 0.044,-0.186 0.042,-0.166C0.039,-0.146 0.039,-0.126 0.042,-0.107C0.044,-0.088 0.05,-0.069 0.06,-0.051C0.07,-0.034 0.086,-0.019 0.107,-0.006C0.11,-0.004 0.114,-0.003 0.117,-0.002C0.121,-0.001 0.123,-0.001 0.123,-0C0.123,0.001 0.121,0.002 0.118,0.002C0.115,0.003 0.111,0.002 0.107,0.001C0.09,-0.002 0.076,-0.009 0.065,-0.02C0.053,-0.03 0.043,-0.042 0.036,-0.055C0.029,-0.068 0.023,-0.082 0.019,-0.097C0.015,-0.112 0.013,-0.125 0.012,-0.137C0.008,-0.19 0.015,-0.242 0.034,-0.293C0.038,-0.304 0.043,-0.316 0.05,-0.329C0.056,-0.342 0.064,-0.356 0.073,-0.37C0.082,-0.383 0.093,-0.397 0.106,-0.409C0.119,-0.423 0.133,-0.434 0.149,-0.444C0.164,-0.453 0.18,-0.46 0.197,-0.465C0.214,-0.47 0.23,-0.472 0.247,-0.471C0.264,-0.471 0.279,-0.468 0.294,-0.463C0.309,-0.457 0.322,-0.448 0.333,-0.437C0.343,-0.426 0.351,-0.413 0.357,-0.396C0.362,-0.379 0.363,-0.36 0.36,-0.338ZM0.269,-0.374C0.277,-0.365 0.278,-0.35 0.272,-0.331C0.266,-0.311 0.252,-0.291 0.23,-0.271C0.218,-0.26 0.206,-0.251 0.195,-0.244C0.184,-0.236 0.169,-0.23 0.152,-0.225C0.145,-0.2 0.14,-0.175 0.138,-0.15C0.136,-0.125 0.137,-0.105 0.14,-0.09C0.141,-0.084 0.143,-0.078 0.147,-0.073C0.15,-0.067 0.156,-0.063 0.163,-0.059C0.17,-0.057 0.179,-0.055 0.19,-0.056C0.201,-0.057 0.215,-0.06 0.232,-0.067C0.237,-0.069 0.239,-0.07 0.241,-0.069C0.242,-0.068 0.239,-0.065 0.234,-0.062C0.222,-0.053 0.209,-0.046 0.196,-0.043C0.183,-0.039 0.17,-0.038 0.159,-0.039C0.147,-0.04 0.137,-0.044 0.129,-0.051C0.12,-0.058 0.115,-0.067 0.112,-0.078C0.107,-0.101 0.104,-0.126 0.105,-0.151C0.106,-0.176 0.11,-0.201 0.117,-0.226C0.124,-0.251 0.134,-0.274 0.147,-0.296C0.16,-0.317 0.176,-0.336 0.195,-0.351C0.231,-0.38 0.256,-0.387 0.269,-0.374ZM0.259,-0.055C0.254,-0.048 0.249,-0.042 0.242,-0.035C0.234,-0.029 0.227,-0.024 0.218,-0.019C0.209,-0.014 0.199,-0.009 0.19,-0.006C0.18,-0.003 0.17,-0.001 0.16,-0.001C0.143,-0.001 0.127,-0.005 0.112,-0.013C0.097,-0.02 0.085,-0.036 0.077,-0.059C0.076,-0.062 0.075,-0.064 0.075,-0.067C0.075,-0.069 0.076,-0.07 0.077,-0.07C0.08,-0.071 0.082,-0.07 0.085,-0.068C0.088,-0.065 0.09,-0.061 0.093,-0.058C0.1,-0.049 0.11,-0.042 0.122,-0.035C0.133,-0.028 0.144,-0.025 0.155,-0.025C0.175,-0.025 0.192,-0.028 0.207,-0.034C0.222,-0.04 0.236,-0.048 0.249,-0.058C0.252,-0.06 0.256,-0.062 0.261,-0.064C0.265,-0.066 0.264,-0.063 0.259,-0.055ZM0.245,-0.347C0.242,-0.352 0.233,-0.348 0.216,-0.334C0.201,-0.322 0.189,-0.308 0.18,-0.293C0.171,-0.277 0.163,-0.26 0.156,-0.241C0.169,-0.247 0.18,-0.254 0.191,-0.262C0.202,-0.269 0.212,-0.277 0.221,-0.284C0.231,-0.293 0.238,-0.304 0.243,-0.318C0.248,-0.332 0.248,-0.342 0.245,-0.347Z" style="fill:rgb(233,247,255);fill-rule:nonzero;"/>
        </g>
        <g transform="matrix(144,0,0,144,402.069,277.734)">
            <path d="M0.306,-0.408C0.311,-0.401 0.316,-0.393 0.319,-0.383C0.322,-0.373 0.323,-0.362 0.322,-0.35C0.321,-0.339 0.319,-0.327 0.314,-0.314C0.309,-0.301 0.302,-0.289 0.292,-0.277C0.273,-0.254 0.252,-0.237 0.229,-0.225C0.205,-0.212 0.185,-0.206 0.166,-0.206C0.155,-0.206 0.155,-0.208 0.166,-0.212C0.172,-0.214 0.179,-0.217 0.188,-0.222C0.196,-0.226 0.205,-0.231 0.214,-0.237C0.223,-0.244 0.233,-0.251 0.243,-0.26C0.252,-0.269 0.261,-0.279 0.269,-0.29C0.282,-0.309 0.29,-0.327 0.293,-0.344C0.295,-0.362 0.291,-0.376 0.282,-0.385C0.274,-0.393 0.265,-0.398 0.254,-0.399C0.243,-0.4 0.227,-0.394 0.206,-0.381C0.187,-0.37 0.169,-0.356 0.154,-0.339C0.139,-0.322 0.124,-0.305 0.111,-0.286C0.104,-0.277 0.099,-0.272 0.097,-0.272C0.094,-0.272 0.095,-0.278 0.099,-0.29C0.107,-0.313 0.118,-0.335 0.133,-0.355C0.147,-0.375 0.164,-0.392 0.184,-0.406C0.199,-0.416 0.212,-0.423 0.225,-0.427C0.237,-0.431 0.248,-0.433 0.259,-0.432C0.269,-0.431 0.278,-0.429 0.286,-0.425C0.294,-0.42 0.301,-0.415 0.306,-0.408ZM0.36,-0.338C0.357,-0.322 0.353,-0.309 0.347,-0.298C0.342,-0.286 0.336,-0.277 0.329,-0.27C0.322,-0.262 0.315,-0.256 0.308,-0.251C0.301,-0.246 0.294,-0.242 0.289,-0.238C0.286,-0.236 0.284,-0.236 0.283,-0.237C0.282,-0.238 0.283,-0.241 0.286,-0.244C0.298,-0.254 0.31,-0.268 0.323,-0.284C0.335,-0.302 0.341,-0.32 0.342,-0.341C0.342,-0.376 0.333,-0.403 0.316,-0.422C0.299,-0.441 0.277,-0.449 0.251,-0.447C0.225,-0.444 0.198,-0.434 0.17,-0.416C0.152,-0.405 0.136,-0.392 0.123,-0.377C0.109,-0.362 0.097,-0.345 0.087,-0.329C0.077,-0.312 0.069,-0.294 0.063,-0.276C0.056,-0.258 0.052,-0.24 0.049,-0.222C0.046,-0.205 0.044,-0.186 0.042,-0.166C0.039,-0.146 0.039,-0.126 0.042,-0.107C0.044,-0.088 0.05,-0.069 0.06,-0.051C0.07,-0.034 0.086,-0.019 0.107,-0.006C0.11,-0.004 0.114,-0.003 0.117,-0.002C0.121,-0.001 0.123,-0.001 0.123,-0C0.123,0.001 0.121,0.002 0.118,0.002C0.115,0.003 0.111,0.002 0.107,0.001C0.09,-0.002 0.076,-0.009 0.065,-0.02C0.053,-0.03 0.043,-0.042 0.036,-0.055C0.029,-0.068 0.023,-0.082 0.019,-0.097C0.015,-0.112 0.013,-0.125 0.012,-0.137C0.008,-0.19 0.015,-0.242 0.034,-0.293C0.038,-0.304 0.043,-0.316 0.05,-0.329C0.056,-0.342 0.064,-0.356 0.073,-0.37C0.082,-0.383 0.093,-0.397 0.106,-0.409C0.119,-0.423 0.133,-0.434 0.149,-0.444C0.164,-0.453 0.18,-0.46 0.197,-0.465C0.214,-0.47 0.23,-0.472 0.247,-0.471C0.264,-0.471 0.279,-0.468 0.294,-0.463C0.309,-0.457 0.322,-0.448 0.333,-0.437C0.343,-0.426 0.351,-0.413 0.357,-0.396C0.362,-0.379 0.363,-0.36 0.36,-0.338ZM0.269,-0.374C0.277,-0.365 0.278,-0.35 0.272,-0.331C0.266,-0.311 0.252,-0.291 0.23,-0.271C0.218,-0.26 0.206,-0.251 0.195,-0.244C0.184,-0.236 0.169,-0.23 0.152,-0.225C0.145,-0.2 0.14,-0.175 0.138,-0.15C0.136,-0.125 0.137,-0.105 0.14,-0.09C0.141,-0.084 0.143,-0.078 0.147,-0.073C0.15,-0.067 0.156,-0.063 0.163,-0.059C0.17,-0.057 0.179,-0.055 0.19,-0.056C0.201,-0.057 0.215,-0.06 0.232,-0.067C0.237,-0.069 0.239,-0.07 0.241,-0.069C0.242,-0.068 0.239,-0.065 0.234,-0.062C0.222,-0.053 0.209,-0.046 0.196,-0.043C0.183,-0.039 0.17,-0.038 0.159,-0.039C0.147,-0.04 0.137,-0.044 0.129,-0.051C0.12,-0.058 0.115,-0.067 0.112,-0.078C0.107,-0.101 0.104,-0.126 0.105,-0.151C0.106,-0.176 0.11,-0.201 0.117,-0.226C0.124,-0.251 0.134,-0.274 0.147,-0.296C0.16,-0.317 0.176,-0.336 0.195,-0.351C0.231,-0.38 0.256,-0.387 0.269,-0.374ZM0.259,-0.055C0.254,-0.048 0.249,-0.042 0.242,-0.035C0.234,-0.029 0.227,-0.024 0.218,-0.019C0.209,-0.014 0.199,-0.009 0.19,-0.006C0.18,-0.003 0.17,-0.001 0.16,-0.001C0.143,-0.001 0.127,-0.005 0.112,-0.013C0.097,-0.02 0.085,-0.036 0.077,-0.059C0.076,-0.062 0.075,-0.064 0.075,-0.067C0.075,-0.069 0.076,-0.07 0.077,-0.07C0.08,-0.071 0.082,-0.07 0.085,-0.068C0.088,-0.065 0.09,-0.061 0.093,-0.058C0.1,-0.049 0.11,-0.042 0.122,-0.035C0.133,-0.028 0.144,-0.025 0.155,-0.025C0.175,-0.025 0.192,-0.028 0.207,-0.034C0.222,-0.04 0.236,-0.048 0.249,-0.058C0.252,-0.06 0.256,-0.062 0.261,-0.064C0.265,-0.066 0.264,-0.063 0.259,-0.055ZM0.245,-0.347C0.242,-0.352 0.233,-0.348 0.216,-0.334C0.201,-0.322 0.189,-0.308 0.18,-0.293C0.171,-0.277 0.163,-0.26 0.156,-0.241C0.169,-0.247 0.18,-0.254 0.191,-0.262C0.202,-0.269 0.212,-0.277 0.221,-0.284C0.231,-0.293 0.238,-0.304 0.243,-0.318C0.248,-0.332 0.248,-0.342 0.245,-0.347Z" style="fill:rgb(233,247,255);fill-rule:nonzero;"/>
        </g>
        <g transform="matrix(144,0,0,144,451.605,277.734)">
            <path d="M0.299,-0.444C0.3,-0.443 0.3,-0.442 0.3,-0.44C0.3,-0.437 0.3,-0.435 0.299,-0.434C0.293,-0.415 0.283,-0.401 0.268,-0.393C0.253,-0.385 0.24,-0.381 0.229,-0.381C0.215,-0.381 0.201,-0.382 0.186,-0.385C0.171,-0.387 0.157,-0.393 0.144,-0.403C0.143,-0.404 0.141,-0.406 0.139,-0.407C0.137,-0.408 0.136,-0.41 0.136,-0.411C0.136,-0.413 0.137,-0.414 0.139,-0.416C0.141,-0.417 0.143,-0.417 0.144,-0.418C0.15,-0.419 0.158,-0.421 0.168,-0.422C0.177,-0.423 0.187,-0.422 0.196,-0.421C0.203,-0.42 0.211,-0.419 0.22,-0.419C0.229,-0.419 0.239,-0.42 0.249,-0.421C0.258,-0.422 0.267,-0.425 0.275,-0.428C0.283,-0.431 0.289,-0.435 0.293,-0.441C0.295,-0.444 0.297,-0.445 0.299,-0.444ZM0.306,-0.475L0.303,-0.47C0.292,-0.455 0.28,-0.446 0.267,-0.442C0.254,-0.437 0.241,-0.435 0.227,-0.436C0.213,-0.437 0.199,-0.439 0.185,-0.442C0.17,-0.445 0.156,-0.446 0.142,-0.447C0.123,-0.448 0.105,-0.442 0.086,-0.43C0.067,-0.418 0.051,-0.397 0.038,-0.367C0.036,-0.363 0.035,-0.362 0.034,-0.365C0.033,-0.367 0.033,-0.369 0.034,-0.371C0.039,-0.391 0.046,-0.408 0.053,-0.421C0.06,-0.434 0.068,-0.445 0.077,-0.454C0.085,-0.462 0.094,-0.468 0.103,-0.472C0.112,-0.476 0.122,-0.479 0.132,-0.48C0.143,-0.518 0.152,-0.555 0.159,-0.592C0.165,-0.628 0.165,-0.662 0.16,-0.695L0.16,-0.699C0.161,-0.7 0.163,-0.699 0.164,-0.698C0.165,-0.697 0.166,-0.696 0.166,-0.695C0.181,-0.663 0.187,-0.629 0.184,-0.593C0.181,-0.556 0.175,-0.518 0.164,-0.478C0.167,-0.477 0.17,-0.477 0.172,-0.477L0.179,-0.477C0.182,-0.494 0.186,-0.513 0.189,-0.533C0.192,-0.552 0.194,-0.571 0.196,-0.589C0.197,-0.607 0.198,-0.623 0.197,-0.638C0.196,-0.653 0.194,-0.664 0.19,-0.671C0.188,-0.677 0.188,-0.68 0.19,-0.68C0.191,-0.68 0.192,-0.679 0.193,-0.678C0.194,-0.677 0.195,-0.675 0.196,-0.674C0.205,-0.665 0.213,-0.652 0.218,-0.636C0.223,-0.62 0.227,-0.603 0.229,-0.585C0.231,-0.567 0.232,-0.549 0.231,-0.532C0.23,-0.514 0.228,-0.498 0.225,-0.485L0.221,-0.469C0.223,-0.468 0.225,-0.467 0.227,-0.467C0.229,-0.467 0.231,-0.467 0.233,-0.466C0.237,-0.486 0.241,-0.506 0.244,-0.526C0.247,-0.546 0.248,-0.567 0.247,-0.589C0.247,-0.594 0.247,-0.596 0.248,-0.596C0.249,-0.596 0.25,-0.595 0.251,-0.593C0.252,-0.591 0.252,-0.589 0.253,-0.588C0.261,-0.573 0.265,-0.555 0.265,-0.533C0.264,-0.511 0.262,-0.488 0.259,-0.463C0.274,-0.463 0.288,-0.467 0.301,-0.475C0.304,-0.477 0.306,-0.477 0.306,-0.475ZM0.099,-0.407C0.099,-0.404 0.097,-0.4 0.094,-0.397C0.09,-0.394 0.087,-0.391 0.085,-0.39C0.082,-0.387 0.078,-0.384 0.074,-0.381C0.069,-0.377 0.065,-0.373 0.062,-0.369C0.059,-0.364 0.056,-0.359 0.053,-0.355C0.05,-0.351 0.047,-0.345 0.045,-0.338C0.044,-0.337 0.043,-0.336 0.043,-0.335C0.042,-0.334 0.041,-0.333 0.04,-0.334C0.038,-0.336 0.038,-0.34 0.04,-0.347C0.043,-0.357 0.045,-0.365 0.048,-0.372C0.051,-0.378 0.056,-0.385 0.063,-0.392C0.066,-0.395 0.069,-0.397 0.073,-0.4C0.077,-0.403 0.081,-0.405 0.085,-0.407C0.089,-0.409 0.092,-0.41 0.095,-0.41C0.098,-0.41 0.099,-0.409 0.099,-0.407ZM0.177,-0.005C0.18,-0.006 0.182,-0.006 0.181,-0.004C0.18,-0.002 0.179,-0.001 0.178,-0C0.166,0.004 0.153,0.003 0.14,-0.002C0.127,-0.007 0.114,-0.016 0.103,-0.027C0.092,-0.038 0.082,-0.051 0.074,-0.067C0.066,-0.082 0.061,-0.096 0.059,-0.111C0.056,-0.142 0.055,-0.173 0.058,-0.202C0.061,-0.231 0.066,-0.26 0.073,-0.289L0.09,-0.352C0.086,-0.352 0.082,-0.353 0.078,-0.355C0.073,-0.356 0.071,-0.358 0.071,-0.36C0.071,-0.361 0.073,-0.363 0.078,-0.366C0.097,-0.375 0.116,-0.379 0.135,-0.378C0.154,-0.377 0.173,-0.374 0.192,-0.371C0.204,-0.369 0.216,-0.368 0.229,-0.367C0.241,-0.366 0.254,-0.368 0.269,-0.374C0.27,-0.375 0.272,-0.376 0.273,-0.375C0.274,-0.374 0.274,-0.371 0.272,-0.368C0.268,-0.359 0.262,-0.353 0.255,-0.349C0.248,-0.345 0.24,-0.342 0.232,-0.34C0.227,-0.323 0.222,-0.307 0.218,-0.294C0.214,-0.28 0.211,-0.268 0.208,-0.259C0.201,-0.227 0.192,-0.195 0.183,-0.162C0.173,-0.129 0.166,-0.101 0.163,-0.078C0.162,-0.071 0.16,-0.067 0.159,-0.066C0.158,-0.065 0.156,-0.067 0.155,-0.07C0.154,-0.073 0.153,-0.076 0.152,-0.078C0.149,-0.097 0.149,-0.117 0.151,-0.139C0.152,-0.16 0.155,-0.181 0.16,-0.203C0.165,-0.225 0.17,-0.247 0.176,-0.27C0.182,-0.292 0.188,-0.314 0.195,-0.337L0.185,-0.337C0.182,-0.337 0.178,-0.337 0.175,-0.338C0.17,-0.324 0.164,-0.31 0.159,-0.297C0.153,-0.283 0.147,-0.27 0.142,-0.258C0.141,-0.257 0.14,-0.254 0.138,-0.249C0.135,-0.244 0.133,-0.241 0.132,-0.241C0.129,-0.242 0.128,-0.245 0.129,-0.251C0.13,-0.256 0.13,-0.26 0.13,-0.262C0.131,-0.272 0.134,-0.284 0.137,-0.297C0.14,-0.31 0.142,-0.325 0.145,-0.34C0.142,-0.341 0.138,-0.341 0.134,-0.342C0.13,-0.342 0.126,-0.343 0.122,-0.344C0.118,-0.331 0.114,-0.318 0.111,-0.305C0.107,-0.292 0.103,-0.28 0.1,-0.267C0.095,-0.244 0.091,-0.219 0.088,-0.193C0.085,-0.166 0.085,-0.139 0.088,-0.111C0.089,-0.098 0.093,-0.085 0.099,-0.072C0.104,-0.059 0.111,-0.047 0.119,-0.036C0.127,-0.025 0.136,-0.017 0.147,-0.011C0.157,-0.005 0.167,-0.003 0.177,-0.005ZM0.186,-0.027C0.189,-0.03 0.191,-0.03 0.192,-0.028C0.193,-0.025 0.191,-0.023 0.188,-0.021C0.185,-0.019 0.182,-0.018 0.178,-0.017C0.173,-0.016 0.168,-0.015 0.163,-0.016C0.158,-0.017 0.152,-0.019 0.146,-0.022C0.14,-0.025 0.134,-0.031 0.129,-0.038C0.124,-0.044 0.121,-0.053 0.117,-0.064C0.115,-0.075 0.112,-0.086 0.111,-0.098C0.11,-0.109 0.109,-0.118 0.11,-0.126C0.111,-0.134 0.112,-0.138 0.115,-0.138C0.118,-0.138 0.121,-0.133 0.123,-0.124C0.124,-0.115 0.126,-0.107 0.127,-0.101C0.13,-0.09 0.133,-0.079 0.138,-0.068C0.143,-0.057 0.148,-0.048 0.153,-0.041C0.16,-0.032 0.166,-0.027 0.171,-0.025C0.176,-0.024 0.181,-0.024 0.186,-0.027Z" style="fill:rgb(233,247,255);fill-rule:nonzero;"/>
        </g>
    </g>
</svg>
